<svg width="259" height="239" viewBox="0 0 259 239" fill="none" xmlns="http://www.w3.org/2000/svg">
<path d="M9.5286 3.48038C43.0001 6.5273 167.814 28.8683 255 192.502C255 192.502 224 217.502 210.5 234.502C55.7535 139.629 13.0152 40.1342 3.4209 11.2828C2.01693 7.06087 5.09766 3.07703 9.5286 3.48038Z" fill="#FFD924"/>
<path fill-rule="evenodd" clip-rule="evenodd" d="M258.814 193.28L256.883 194.837L256.772 194.699C256.883 194.837 256.883 194.837 256.883 194.837L256.882 194.838L256.878 194.84L256.798 194.905C256.741 194.952 256.654 195.022 256.541 195.114C256.314 195.299 255.977 195.573 255.544 195.929C254.677 196.64 253.421 197.676 251.871 198.974C248.77 201.57 244.496 205.207 239.804 209.37C230.371 217.741 219.422 228.091 212.849 236.367L211.197 238.448L208.932 237.059C53.5394 141.79 10.375 41.7015 0.574198 12.2293C-1.4935 6.01145 3.1571 -0.112197 9.80059 0.492562C43.9555 3.6017 169.852 26.3119 257.647 191.091L258.814 193.28ZM255 192.502C167.815 28.8682 43.0001 6.52714 9.52862 3.48021C5.09768 3.07686 2.01695 7.0607 3.42092 11.2826C13.0152 40.134 55.7536 139.628 210.5 234.502C224 217.502 255 192.502 255 192.502Z" fill="black"/>
<path d="M45.5682 10.1338C77.2858 18.6242 122.157 37.217 167.477 77.9298C166.889 81.4802 165.596 84.7253 163.543 87.5541C151.056 104.764 115.204 100.048 83.4664 77.0194C55.0977 56.4359 39.6178 28.1894 45.5682 10.1338Z" fill="#FFE35B"/>
<path d="M68.8164 17.5307C42.0696 7.66693 20.706 4.49786 9.5286 3.48038C5.09766 3.07703 2.01693 7.06087 3.4209 11.2828C9.97408 30.9891 31.9899 83.6525 94.5985 145.29C77.7374 106.351 64.2536 59.456 68.8164 17.5307Z" fill="black"/>
</svg>
